<svg width="63" height="63" viewBox="0 0 63 63" fill="none" xmlns="http://www.w3.org/2000/svg">
<path d="M41.9499 12.6009C42.1811 12.8322 42.4976 12.9539 42.8019 12.9539C43.1061 12.9539 43.4226 12.8322 43.6538 12.6009C44.1285 12.1263 44.1285 11.3717 43.6538 10.897L41.1344 8.3776H49.5203C54.5591 8.3776 58.6607 12.4792 58.6607 17.518V22.922C58.6607 23.5914 59.1962 24.1269 59.8656 24.1269C60.535 24.1269 61.0706 23.5914 61.0706 22.922V17.5059C61.0706 11.1404 55.8857 5.95557 49.5203 5.95557H41.1344L43.6538 3.43617C44.1285 2.9615 44.1285 2.20689 43.6538 1.73222C43.1792 1.25755 42.4246 1.25755 41.9499 1.73222L37.3736 6.30853C36.8989 6.7832 36.8989 7.5378 37.3736 8.01247L41.9499 12.6009Z" fill="#105BAB" stroke="#105BAB" stroke-width="2"/>
<path d="M33.285 61.2607H59.7448C60.4142 61.2607 60.9498 60.7252 60.9498 60.0558V33.5838C60.9498 32.9144 60.4142 32.3789 59.7448 32.3789H33.285C32.6156 32.3789 32.0801 32.9144 32.0801 33.5838V60.0436C32.0801 60.713 32.6156 61.2607 33.285 61.2607ZM34.4899 34.7888H58.5399V58.8387H34.4899V34.7888Z" fill="#105BAB" stroke="#105BAB" stroke-width="2"/>
<path d="M2.49204 38.5132C1.82263 38.5132 1.28711 39.0487 1.28711 39.7181V45.1342C1.28711 51.4997 6.47197 56.6845 12.8374 56.6845H21.2232L18.7038 59.2039C18.2292 59.6786 18.2292 60.4332 18.7038 60.9079C18.9351 61.1391 19.2515 61.2608 19.5558 61.2608C19.8601 61.2608 20.1765 61.1391 20.4078 60.9079L24.9841 56.3316C25.4588 55.8569 25.4588 55.1023 24.9841 54.6276L20.4078 50.0513C19.9331 49.5766 19.1785 49.5766 18.7038 50.0513C18.2292 50.526 18.2292 51.2806 18.7038 51.7553L21.2232 54.2747H12.8374C7.79861 54.2747 3.69697 50.173 3.69697 45.1342V39.7181C3.69697 39.0487 3.16145 38.5132 2.49204 38.5132Z" fill="#105BAB" stroke="#105BAB" stroke-width="2"/>
<path d="M1.40918 2.58408V29.0439C1.40918 29.7133 1.9447 30.2488 2.61411 30.2488H29.0739C29.7433 30.2488 30.2788 29.7133 30.2788 29.0439V2.58408C30.2788 1.91468 29.7433 1.37915 29.0739 1.37915H2.61411C1.9447 1.37915 1.40918 1.92685 1.40918 2.58408ZM3.81904 3.78901H27.869V27.839H3.81904V3.78901Z" fill="#105BAB" stroke="#105BAB" stroke-width="2"/>
</svg>
