<svg width="73" height="70" viewBox="0 0 73 70" fill="none" xmlns="http://www.w3.org/2000/svg">
<path d="M46.9788 29.5088C46.8917 28.7858 46.617 28.1265 46.1947 27.576L49.0939 9.58299C49.2019 8.91351 48.7724 8.27523 48.1117 8.12261L48.0794 8.11528C47.4187 7.96266 46.753 8.34829 46.5564 8.99721L41.2748 26.4399C39.9732 27.0943 39.0696 28.4285 39.0696 29.9822C39.0696 32.1762 40.8537 33.9613 43.0475 33.9613C43.4563 33.9613 43.8429 33.8815 44.2142 33.7666L55.2483 39.5007C55.8553 39.8161 56.6026 39.6191 56.9751 39.0453L56.9918 39.0196C57.3644 38.446 57.2405 37.6831 56.7052 37.257L46.9788 29.5088ZM41.0827 29.9822C41.0827 28.899 41.9644 28.0173 43.0476 28.0173C44.1318 28.0173 45.0135 28.899 45.0135 29.9822C45.0135 31.0663 44.1318 31.9481 43.0476 31.9481C41.9644 31.9481 41.0827 31.0664 41.0827 29.9822ZM72.9996 29.9822C72.9996 43.3008 64.2595 54.6115 52.2153 58.4934L52.2147 54.2285C61.9982 50.5168 68.9734 41.0508 68.9734 29.9822C68.9734 15.687 57.3428 4.05652 43.0476 4.05652C28.7524 4.05652 17.1219 15.687 17.1219 29.9822C17.1219 31.4163 17.2442 32.8218 17.4693 34.1933H13.3976C13.203 32.8165 13.0957 31.4119 13.0957 29.9822C13.0957 13.4664 26.5318 0.0302734 43.0476 0.0302734C59.5634 0.0302734 72.9996 13.4664 72.9996 29.9822ZM48.269 51.3244L39.0489 42.205C38.4652 41.6211 37.67 41.2989 36.8546 41.2989H32.2043V39.5577C32.2043 38.2591 31.1475 37.2124 29.849 37.2124H2.99406C1.69564 37.2124 0.648792 38.2591 0.648792 39.5577V55.2598H49.1951V53.5487C49.195 52.7135 48.8628 51.9082 48.269 51.3244ZM44.2528 51.6265H35.3246C35.1233 51.6265 34.9623 51.4653 34.9623 51.264V44.3691C34.9623 44.1678 35.1232 44.0067 35.3246 44.0067H37.0257C37.1164 44.0067 37.217 44.0471 37.2874 44.1074L44.5045 51.0025C44.746 51.2236 44.5849 51.6265 44.2528 51.6265ZM49.1961 56.5571V61.7519C49.1961 63.0477 48.1456 64.0983 46.8496 64.0983H44.339C43.8853 60.9853 41.2026 58.592 37.9646 58.592C34.7342 58.592 32.0516 60.9853 31.5979 64.0983H18.8723C18.4187 60.9853 15.7359 58.592 12.5056 58.592C9.27537 58.592 6.59258 60.9853 6.13897 64.0983H2.99488C1.69895 64.0981 0.648438 63.0477 0.648438 61.752V56.5571H49.1961ZM37.9718 60.1619C35.2844 60.1619 33.1002 62.3361 33.1002 65.0235C33.1002 67.7111 35.2844 69.8955 37.9718 69.8955C40.6593 69.8955 42.8335 67.7111 42.8335 65.0235C42.8335 62.3361 40.6593 60.1619 37.9718 60.1619ZM37.9718 67.4596C36.6232 67.4596 35.536 66.3725 35.536 65.0236C35.536 63.6849 36.623 62.5878 37.9718 62.5878C39.3106 62.5878 40.3977 63.6848 40.3977 65.0236C40.3977 66.3725 39.3106 67.4596 37.9718 67.4596ZM12.506 60.1619C9.81859 60.1619 7.63423 62.3361 7.63423 65.0235C7.63423 67.7111 9.81859 69.8955 12.506 69.8955C15.1935 69.8955 17.3677 67.7111 17.3677 65.0235C17.3677 62.3361 15.1935 60.1619 12.506 60.1619ZM12.506 67.4596C11.1572 67.4596 10.0702 66.3725 10.0702 65.0236C10.0702 63.6849 11.1572 62.5878 12.506 62.5878C13.8447 62.5878 14.9418 63.6848 14.9418 65.0236C14.9418 66.3725 13.8447 67.4596 12.506 67.4596Z" fill="#105BAB"/>
</svg>
