<svg width="66" height="66" viewBox="0 0 66 66" fill="none" xmlns="http://www.w3.org/2000/svg">
<path d="M32.6029 0C20.2418 0 10.1875 10.0543 10.1875 22.4154C10.1875 34.7764 20.2418 44.8307 32.6029 44.8307C44.9598 44.8307 55.0182 34.7764 55.0182 22.4154C55.0182 10.0543 44.9598 0 32.6029 0ZM44.3852 19.2446L40.5134 24.0945L40.9373 30.4319C40.9862 31.137 40.6642 31.8176 40.0814 32.2292C39.7269 32.4778 39.3152 32.6041 38.8995 32.6041C38.6305 32.6041 38.3575 32.5512 38.1048 32.4411L32.6029 30.1059L27.105 32.4411C26.4529 32.7183 25.703 32.6408 25.1284 32.2292C24.5496 31.8176 24.2277 31.137 24.2725 30.4319L24.6963 24.0945L20.8246 19.2446C20.3926 18.7066 20.2663 17.9853 20.4823 17.3291C20.6983 16.6729 21.2322 16.1757 21.9005 16.0005L27.6796 14.4885L30.8504 9.14954C31.584 7.91058 33.6217 7.91058 34.3512 9.14954L37.522 14.4885L43.3052 16.0005C43.9695 16.1757 44.5034 16.677 44.7234 17.3291C44.9435 17.9812 44.8131 18.7026 44.3852 19.2446Z" fill="#105BAB"/>
<path d="M9.67785 35.6323L0.271552 51.9629C-0.140075 52.6802 -0.0789422 53.5728 0.422347 54.2248C0.923635 54.8769 1.76727 55.1704 2.56607 54.9503L14.5318 51.7347L17.7148 63.7004C17.9267 64.4951 18.5992 65.0861 19.4143 65.1961C19.5039 65.2043 19.5977 65.2084 19.6833 65.2084C20.4046 65.2084 21.0812 64.8253 21.448 64.1895L30.3448 48.7922C21.505 48.0423 13.9082 42.9357 9.67785 35.6323Z" fill="#105BAB"/>
<path d="M64.9377 51.9629L55.5273 35.6323C51.301 42.9357 43.7002 48.0423 34.8604 48.7922L43.7572 64.1895C44.124 64.8253 44.8005 65.2084 45.5219 65.2084C45.6075 65.2084 45.7012 65.2043 45.7868 65.1921C46.606 65.082 47.2744 64.4911 47.4904 63.6963L50.6734 51.7306L62.6391 54.9462C63.4379 55.1663 64.2774 54.8728 64.7828 54.2208C65.2882 53.5728 65.3452 52.6802 64.9377 51.9629Z" fill="#105BAB"/>
</svg>
