<svg width="76" height="42" viewBox="0 0 76 42" fill="none" xmlns="http://www.w3.org/2000/svg">
<path d="M62.3744 18.7467C66.2789 18.7467 69.4441 15.5535 69.4441 11.6144C69.4441 7.6754 66.2789 4.48218 62.3744 4.48218C58.4699 4.48218 55.3047 7.6754 55.3047 11.6144C55.3047 15.5535 58.4699 18.7467 62.3744 18.7467Z" fill="#105BAB"/>
<path d="M12.8138 18.7467C16.7183 18.7467 19.8835 15.5535 19.8835 11.6144C19.8835 7.6754 16.7183 4.48218 12.8138 4.48218C8.90935 4.48218 5.74414 7.6754 5.74414 11.6144C5.74414 15.5535 8.90935 18.7467 12.8138 18.7467Z" fill="#105BAB"/>
<path d="M62.3749 23.5942C59.1852 23.5942 56.2701 24.7721 54.0283 26.7181C56.5714 29.5301 58.3312 32.8884 59.1984 36.5214H75.1887C75.1887 29.3821 69.4518 23.5942 62.3749 23.5942Z" fill="#105BAB"/>
<path d="M37.5936 24.2388C27.9734 24.2388 20.1748 32.1064 20.1748 41.8117H55.0123C55.0123 32.1064 47.2137 24.2388 37.5936 24.2388Z" fill="#105BAB"/>
<path d="M12.8138 23.5942C5.7369 23.5942 0 29.3819 0 36.5214H15.9903C16.8573 32.8884 18.6173 29.5301 21.1604 26.7181C18.9186 24.7722 16.0035 23.5942 12.8138 23.5942Z" fill="#105BAB"/>
<path d="M37.5947 19.3908C42.9024 19.3908 47.2051 15.05 47.2051 9.69539C47.2051 4.34078 42.9024 0 37.5947 0C32.2871 0 27.9844 4.34078 27.9844 9.69539C27.9844 15.05 32.2871 19.3908 37.5947 19.3908Z" fill="#105BAB"/>
</svg>
