<svg width="23" height="23" viewBox="0 0 23 23" fill="none" xmlns="http://www.w3.org/2000/svg">
<path d="M23 13.9856V22.4888H18.0704V14.5551C18.0704 12.5621 17.3573 11.2019 15.573 11.2019C14.2108 11.2019 13.4002 12.1185 13.0436 13.0053C12.9136 13.3222 12.8801 13.7635 12.8801 14.2072V22.4888H7.94878C7.94878 22.4888 8.01519 9.05166 7.94878 7.65947H12.8796V9.76148C12.8696 9.7772 12.8566 9.79415 12.8472 9.80939H12.8796V9.76148C13.5347 8.75248 14.7047 7.31109 17.3234 7.31109C20.5678 7.31104 23 9.43058 23 13.9856ZM2.79042 0.510986C1.10343 0.510986 0 1.61752 0 3.07265C0 4.49607 1.07151 5.63618 2.72497 5.63618H2.75791C4.47758 5.63618 5.54705 4.49628 5.54705 3.07265C5.51465 1.61752 4.47758 0.510986 2.79042 0.510986ZM0.292876 22.4888H5.22231V7.65947H0.292876V22.4888Z" fill="white"/>
</svg>
