<svg width="201" height="60" viewBox="0 0 201 60" fill="none" xmlns="http://www.w3.org/2000/svg">
<g clip-path="url(#clip0)">
<path d="M142.65 44.8563C149.856 44.8563 155.697 39.0403 155.697 31.8659C155.697 24.6915 149.856 18.8755 142.65 18.8755C135.444 18.8755 129.603 24.6915 129.603 31.8659C129.603 39.0403 135.444 44.8563 142.65 44.8563Z" fill="#003A74"/>
<path fill-rule="evenodd" clip-rule="evenodd" d="M142.65 20.311C143.158 20.3828 143.52 21.7464 143.955 21.8182C144.462 21.89 145.187 20.6699 145.622 20.7417C146.057 20.957 146.057 22.3206 146.492 22.5359C146.927 22.7512 147.942 21.7464 148.377 21.89C148.739 22.1771 148.377 23.5407 148.811 23.8278C149.174 24.1149 150.406 23.3972 150.841 23.6842C151.131 24.0431 150.406 25.335 150.696 25.6938C150.986 26.0527 152.363 25.6938 152.653 26.1244C152.871 26.5551 151.856 27.5598 152.001 28.0622C152.218 28.4929 153.595 28.4929 153.813 28.9235C153.885 29.4259 152.653 30.1436 152.726 30.5742C152.798 31.0766 154.175 31.4354 154.248 31.8661C154.175 32.3685 152.798 32.7273 152.726 33.2297C152.653 33.7321 153.885 34.4498 153.813 34.8804C153.595 35.311 152.218 35.311 152.001 35.8134C151.783 36.2441 152.798 37.2488 152.653 37.6795C152.363 38.0383 150.986 37.6795 150.696 38.1101C150.406 38.4689 151.131 39.689 150.841 40.1196C150.479 40.4067 149.246 39.689 148.811 39.9761C148.449 40.2632 148.811 41.6268 148.377 41.9139C147.942 42.1292 146.927 41.1244 146.492 41.268C146.057 41.4833 146.057 42.8469 145.622 43.0622C145.115 43.134 144.39 41.9139 143.955 41.9857C143.448 42.0574 143.085 43.4211 142.65 43.4929C142.143 43.4211 141.78 42.0574 141.346 41.9857C140.838 41.9139 140.113 43.134 139.678 43.0622C139.243 42.8469 139.244 41.4833 138.809 41.268C138.374 41.0527 137.359 42.0574 136.924 41.9139C136.562 41.6268 136.924 40.2632 136.489 39.9761C136.127 39.689 134.894 40.4067 134.46 40.1196C134.17 39.7608 134.894 38.5407 134.604 38.1101C134.315 37.7512 132.937 38.1101 132.647 37.6795C132.43 37.2488 133.445 36.2441 133.3 35.8134C133.082 35.3828 131.705 35.3828 131.488 34.8804C131.415 34.378 132.647 33.6603 132.575 33.2297C132.502 32.7273 131.125 32.3685 131.053 31.8661C131.125 31.3637 132.502 31.0048 132.575 30.5742C132.647 30.0718 131.415 29.3541 131.488 28.9235C131.705 28.4929 133.082 28.4929 133.3 28.0622C133.517 27.6316 132.502 26.6268 132.647 26.1244C132.937 25.7656 134.315 26.1244 134.604 25.6938C134.894 25.335 134.17 24.0431 134.46 23.6842C134.822 23.3972 136.054 24.1149 136.489 23.8278C136.852 23.5407 136.489 22.1771 136.924 21.89C137.359 21.6747 138.374 22.6795 138.809 22.5359C139.244 22.3206 139.243 20.957 139.678 20.7417C140.186 20.6699 140.911 21.89 141.346 21.8182C141.78 21.7464 142.143 20.311 142.65 20.311Z" fill="white"/>
<path fill-rule="evenodd" clip-rule="evenodd" d="M142.722 39.3301C146.854 39.3301 150.26 35.9569 150.26 31.866C150.26 27.7751 146.854 24.4019 142.722 24.4019C138.59 24.4019 135.184 27.7751 135.184 31.866C135.184 35.9569 138.59 39.3301 142.722 39.3301Z" fill="#003A74"/>
<path fill-rule="evenodd" clip-rule="evenodd" d="M50.0144 11.914C49.5795 11.914 48.1298 12.6317 48.1298 12.7753C55.6682 15.5025 80.3855 14.7848 80.3855 5.95708C78.1385 0.000145815 59.5824 -0.430476 48.9996 0.0719162C42.8384 0.502538 38.7068 1.36378 34.0678 2.44034C28.269 4.01928 21.7454 8.32551 25.0072 14.0671C28.4865 19.0193 36.1699 20.9571 43.8532 23.182C49.9419 25.048 72.2672 30.6461 65.8886 39.9045C57.1904 35.7418 50.8118 32.2968 36.9672 30.0001C23.9924 27.9906 1.66715 27.9906 0 38.3973C3.40678 52.8949 53.4937 58.0623 71.7598 46.3638C102.421 59.426 128.37 60.7178 140.693 59.6413L154.972 52.249C126.196 52.6796 101.261 53.8279 75.0216 44.3542C83.6473 38.8997 79.2982 29.2107 70.6726 25.1915C61.0321 20.3829 42.4035 18.7322 38.1994 12.9906C36.8222 12.0576 35.5175 8.25373 40.229 5.23938C50.0144 -2.08119 77.8485 4.73699 67.6282 10.9092C62.7717 13.2059 57.5528 12.9906 50.0144 11.914ZM63.2066 42.1293C47.26 52.7513 14.9318 49.3781 14.6419 38.8997C24.7173 25.981 54.7259 37.3925 63.2066 42.1293Z" fill="white"/>
<path fill-rule="evenodd" clip-rule="evenodd" d="M85.4592 39.7606C85.8941 40.8371 86.1116 41.1242 86.474 41.1242C86.8365 41.1242 87.0539 40.7654 87.6338 39.4017C88.2137 38.2534 89.3009 35.6697 90.8956 32.2965C92.2003 29.4974 92.8527 28.2055 93.8675 26.0524C94.5198 24.5453 94.8098 24.2582 95.1722 24.0429C95.6071 23.7558 96.1145 23.7558 96.3319 23.7558C96.5494 23.7558 96.6944 23.684 96.6944 23.5405C96.6944 23.3969 96.4769 23.3252 96.187 23.3252C95.4621 23.3252 94.3024 23.3969 93.8675 23.3969C93.5775 23.3969 92.4903 23.3252 91.258 23.3252C90.8231 23.3252 90.5332 23.3969 90.5332 23.5405C90.5332 23.684 90.7506 23.7558 90.9681 23.7558C91.258 23.7558 91.6204 23.7558 91.9104 23.8993C92.1278 23.9711 92.2728 24.0429 92.2728 24.3299C92.2728 24.5453 92.1278 24.9041 92.0553 25.1912C91.4755 26.6984 88.3586 34.1625 87.2714 36.6027H87.1989L83.1397 26.196C82.7773 25.4065 82.5599 24.7606 82.6323 24.4735C82.6323 24.2582 82.7048 24.1146 82.8498 24.0429C83.0672 23.8993 83.4297 23.8993 83.7921 23.8993C84.0095 23.8993 84.1545 23.8276 84.1545 23.684C84.1545 23.5405 83.8646 23.4687 83.5746 23.4687C82.3424 23.4687 81.1102 23.5405 80.4578 23.5405C79.588 23.5405 78.2108 23.4687 76.906 23.4687C76.5436 23.4687 76.3262 23.4687 76.3262 23.684C76.3262 23.8276 76.3987 23.8993 76.6161 23.8993C76.8336 23.8993 77.196 23.8993 77.5584 23.9711C78.4282 24.1864 78.7906 24.4017 79.3705 25.6936L85.4592 39.7606ZM99.2313 34.1625C99.2313 36.3156 99.2313 38.1098 99.0864 39.1146C99.0139 39.8323 98.8689 40.263 98.3615 40.3347C98.1441 40.4065 97.8541 40.4065 97.4917 40.4065C97.2018 40.4065 97.1293 40.55 97.1293 40.6218C97.1293 40.7654 97.2742 40.8371 97.5642 40.8371C98.0716 40.8371 98.6514 40.8371 99.2313 40.7654C99.8112 40.7654 100.319 40.7654 100.609 40.7654C101.333 40.7654 102.203 40.7654 103.435 40.8371C104.595 40.9089 106.045 40.9089 107.929 40.9089C108.872 40.9089 109.089 40.9089 109.234 40.3347C109.379 39.9041 109.597 38.2534 109.597 37.751C109.597 37.5357 109.597 37.1768 109.379 37.1768C109.234 37.1768 109.162 37.3204 109.089 37.5357C108.944 38.4687 108.654 38.9711 108.002 39.2582C107.35 39.5453 106.335 39.5453 105.682 39.5453C103.218 39.5453 102.493 39.1864 102.421 37.6075C102.421 36.8898 102.421 34.952 102.421 34.1625V32.2965C102.421 32.1529 102.421 32.0811 102.566 32.0811C103.146 32.0811 105.9 32.1529 106.335 32.2247C107.277 32.2965 107.567 32.6553 107.712 33.1577C107.785 33.4448 107.785 33.7319 107.785 34.0189C107.785 34.1625 107.857 34.2343 108.002 34.2343C108.219 34.2343 108.219 33.8754 108.219 33.7319C108.219 33.5883 108.292 32.6553 108.364 32.1529C108.509 31.0046 108.582 30.574 108.582 30.4304C108.582 30.2869 108.509 30.2151 108.364 30.2151C108.219 30.2151 108.147 30.3587 108.002 30.5022C107.785 30.7175 107.422 30.7893 106.842 30.861C106.262 30.9328 103.146 30.9328 102.566 30.861C102.421 30.861 102.421 30.7175 102.421 30.6457V24.9041C102.421 24.7606 102.493 24.6888 102.566 24.6888C103.073 24.6888 105.972 24.7606 106.335 24.8323C107.567 24.9759 107.712 25.263 107.929 25.6936C108.074 25.9807 108.074 26.4113 108.074 26.5548C108.074 26.7701 108.074 26.8419 108.292 26.8419C108.509 26.8419 108.509 26.5548 108.582 26.4831C108.654 26.196 108.727 25.1912 108.727 24.9759C108.799 23.8993 108.944 23.6122 108.944 23.4687C108.944 23.3252 108.944 23.2534 108.799 23.2534C108.654 23.2534 108.582 23.3252 108.437 23.3252C108.219 23.3252 107.857 23.3969 107.422 23.4687C106.987 23.4687 101.551 23.4687 100.826 23.4687C100.174 23.4687 98.579 23.3969 97.3467 23.3969C96.9843 23.3969 96.7668 23.4687 96.7668 23.6122C96.7668 23.7558 96.9118 23.8276 97.2018 23.8276C97.5642 23.8276 97.9991 23.8276 98.1441 23.8993C98.9414 24.1146 99.1588 24.4017 99.1588 25.1912C99.1588 25.9089 99.1588 26.5548 99.1588 30.0716L99.2313 34.1625ZM118.295 34.306C118.295 36.4591 118.295 38.2534 118.15 39.2582C118.077 39.9041 117.932 40.4065 117.425 40.4783C117.208 40.55 116.918 40.55 116.555 40.55C116.265 40.55 116.193 40.6936 116.193 40.7654C116.193 40.9089 116.338 40.9807 116.628 40.9807C117.57 40.9807 119.237 40.9089 119.817 40.9089C120.469 40.9089 122.136 40.9807 123.731 40.9807C124.021 40.9807 124.166 40.9089 124.166 40.7654C124.166 40.6218 124.021 40.55 123.804 40.55C123.441 40.55 122.861 40.55 122.571 40.4783C121.847 40.3347 121.702 39.9041 121.629 39.2582C121.557 38.2534 121.484 36.3874 121.484 34.306L121.557 24.9041L124.601 24.9759C126.776 25.0476 127.428 25.6936 127.428 26.3395V26.5548C127.428 26.9137 127.5 26.9854 127.718 26.9854C127.863 26.9854 127.935 26.8419 127.935 26.6266C127.935 26.0524 128.008 24.3299 128.008 23.8276C128.008 23.4687 128.008 23.3252 127.79 23.3252C127.718 23.3252 127.5 23.3969 127.138 23.3969C126.776 23.4687 126.268 23.5405 125.471 23.4687L115.613 23.3969C114.816 23.3969 113.873 23.3969 113.221 23.2534C112.641 23.1816 112.351 22.9663 112.206 22.9663C112.061 22.9663 111.989 23.1098 111.916 23.3969C111.844 23.6122 111.409 25.8371 111.409 26.196C111.409 26.4113 111.481 26.5548 111.626 26.5548C111.771 26.5548 111.844 26.4113 111.916 26.2677C111.989 26.1242 112.061 25.8371 112.351 25.4783C112.713 24.9759 113.293 24.8323 114.671 24.7606L118.295 24.6888V34.306Z" fill="white"/>
<path fill-rule="evenodd" clip-rule="evenodd" d="M163.09 39.7606C163.525 40.8371 163.742 41.1242 164.105 41.1242C164.467 41.1242 164.685 40.7653 165.265 39.4017C165.845 38.2534 166.932 35.6697 168.526 32.2964C169.831 29.4974 170.484 28.2055 171.498 26.0524C172.151 24.5452 172.441 24.2582 172.803 24.0429C173.238 23.7558 173.745 23.7558 173.963 23.7558C174.18 23.7558 174.325 23.684 174.325 23.5405C174.325 23.3969 174.108 23.3252 173.818 23.3252C173.093 23.3252 171.933 23.3969 171.498 23.3969C171.208 23.3969 170.121 23.3252 168.889 23.3252C168.454 23.3252 168.237 23.3969 168.164 23.5405C168.164 23.684 168.381 23.7558 168.599 23.7558C168.889 23.7558 169.251 23.7558 169.541 23.8993C169.759 23.9711 169.904 24.0429 169.904 24.3299C169.904 24.5453 169.759 24.9041 169.686 25.1912C169.106 26.6984 165.989 34.1625 164.902 36.6027H164.83L160.771 26.196C160.408 25.4065 160.191 24.7606 160.263 24.4735C160.263 24.2582 160.336 24.1146 160.481 24.0429C160.698 23.8993 161.061 23.8993 161.423 23.8993C161.64 23.8993 161.785 23.8275 161.785 23.684C161.785 23.5405 161.495 23.4687 161.205 23.4687C159.973 23.4687 158.741 23.5405 158.089 23.5405C157.219 23.5405 155.842 23.4687 154.537 23.4687C154.174 23.4687 153.957 23.4687 153.957 23.684C153.957 23.8275 154.03 23.8993 154.247 23.8993C154.464 23.8993 154.827 23.8993 155.189 23.9711C156.059 24.1864 156.422 24.4017 157.001 25.6936L163.09 39.7606ZM176.79 34.1625C176.79 36.3874 176.79 38.2534 176.645 39.1864C176.572 39.9041 176.427 40.1912 175.92 40.3347C175.702 40.4065 175.412 40.4065 175.05 40.4065C174.76 40.4065 174.688 40.55 174.688 40.6218C174.688 40.7653 174.833 40.8371 175.123 40.8371C176.065 40.8371 177.732 40.7653 178.312 40.7653C178.964 40.7653 180.631 40.8371 182.226 40.8371C182.516 40.8371 182.661 40.7653 182.661 40.6218C182.661 40.4783 182.516 40.4065 182.299 40.4065C181.936 40.4065 181.356 40.4065 181.066 40.3347C180.341 40.1912 180.196 39.8323 180.124 39.2582C180.052 38.2534 180.052 36.3874 180.052 34.1625V30.0716C180.052 26.5548 180.052 25.9089 180.124 25.1912C180.196 24.4017 180.341 24.0429 181.066 23.9711C181.356 23.8993 181.501 23.8993 181.791 23.8993C182.009 23.8993 182.154 23.8275 182.154 23.6122C182.154 23.4687 181.936 23.3969 181.646 23.3969C180.704 23.3969 179.109 23.4687 178.529 23.4687C177.877 23.4687 176.21 23.3969 175.268 23.3969C174.905 23.3969 174.688 23.4687 174.688 23.6122C174.688 23.8275 174.833 23.8993 175.05 23.8993C175.34 23.8993 175.63 23.8993 175.92 24.0429C176.427 24.1864 176.717 24.4735 176.717 25.263C176.717 25.9807 176.717 26.6266 176.717 30.1433L176.79 34.1625ZM191.214 34.2342C191.214 36.3874 191.214 38.1816 191.069 39.1864C190.997 39.8323 190.852 40.3347 190.344 40.4065C190.127 40.4783 189.837 40.4783 189.475 40.4783C189.185 40.4783 189.112 40.6218 189.112 40.6936C189.112 40.8371 189.257 40.9089 189.547 40.9089C190.489 40.9089 192.156 40.8371 192.736 40.8371C193.389 40.8371 195.056 40.9089 196.65 40.9089C196.94 40.9089 197.085 40.8371 197.085 40.6936C197.085 40.55 196.94 40.4783 196.723 40.4783C196.361 40.4783 195.781 40.4783 195.491 40.4065C194.766 40.263 194.621 39.8323 194.548 39.1864C194.476 38.1816 194.403 36.3156 194.403 34.2342L194.476 24.8323L197.52 24.9041C199.695 24.9759 200.347 25.6218 200.347 26.2677V26.483C200.347 26.8419 200.42 26.9137 200.637 26.9137C200.782 26.9137 200.855 26.7701 200.855 26.5548C200.855 25.9807 200.927 24.2582 200.927 23.7558C200.927 23.3969 200.927 23.2534 200.71 23.2534C200.637 23.2534 200.42 23.3252 200.057 23.3252C199.695 23.3969 199.187 23.4687 198.39 23.3969L188.532 23.3252C187.735 23.3252 186.793 23.3252 186.14 23.1816C185.56 23.1098 185.27 22.8945 185.125 22.8945C184.98 22.8945 184.908 23.0381 184.836 23.3252C184.763 23.5405 184.328 25.7653 184.328 26.1242C184.328 26.3395 184.401 26.483 184.546 26.483C184.691 26.483 184.763 26.3395 184.836 26.196C184.908 26.0524 184.98 25.7653 185.27 25.4065C185.633 24.9041 186.213 24.7606 187.59 24.6888L191.214 24.617V34.2342Z" fill="white"/>
</g>
<defs>
<clipPath id="clip0">
<rect width="201" height="60" fill="white"/>
</clipPath>
</defs>
</svg>
