<svg width="73" height="71" viewBox="0 0 73 71" fill="none" xmlns="http://www.w3.org/2000/svg">
<path
        d="M0.633451 23.3638L5.15862 26.9236L0.899575 35.1379C-1.22989 38.9258 2.4284 42.6156 4.75926 43.9001C7.05385 45.1645 10.6153 45.3148 13.9426 45.2692L19.9317 35.4118L24.4569 37.8761L16.6044 23.2271L0.633451 23.3638ZM1.29882 43.4721L11.0145 61.5439C12.9666 64.0538 16.6488 64.6471 20.4641 64.5559H30.7122V47.4425L11.2808 47.3056C8.2641 47.4879 4.3156 46.849 1.29882 43.4721ZM62.4253 10.1679L57.1392 12.4268L52.068 4.69417C49.81 0.982696 44.8308 2.41513 42.5851 3.84494C40.3744 5.25252 38.5171 8.31574 36.9436 11.2678L42.6032 21.3206L38.2685 24.1105L54.8013 24.298L62.4253 10.1679ZM44.6345 1.00529L24.225 0.799316C21.0983 1.30129 18.7977 4.25606 17.0273 7.66012L12.0589 16.6843L26.9256 24.9811L36.4651 7.93662C37.769 5.19151 40.2383 2.02446 44.6345 1.00529ZM45.5223 70.7372L46.1225 64.9871L55.2987 64.2706C59.6175 64.0815 60.7871 59.0026 60.6338 56.3319C60.483 53.7027 58.7221 50.5821 56.9205 47.7654L45.4437 47.8755L45.1214 42.7059L36.9433 57.1732L45.5223 70.7372ZM62.1071 59.5133L72.1807 41.6414C73.2606 38.6446 71.8091 35.1862 69.7102 31.977L64.2796 23.2269L49.8646 32.2957L60.0464 48.9592C61.7989 51.4382 63.353 55.1479 62.1071 59.5133Z" fill="#105BAB"/>
</svg>
