<svg width="67" height="67" viewBox="0 0 67 67" fill="#ffffff" xmlns="http://www.w3.org/2000/svg">
<path
        d="M15.4463 0V19.0109H36.8335C37.1486 19.0132 37.4508 19.1368 37.6771 19.3555L42.4298 24.1082C42.8934 24.5753 42.8934 25.3283 42.4298 25.7953L37.6771 30.5481C37.4508 30.7674 37.1486 30.8904 36.8335 30.8927H15.4463V54.6563H55.8444C56.5006 54.6563 57.0326 55.1883 57.0326 55.8445V58.2208C57.0303 58.5028 57.0459 58.7848 57.0802 59.0644V59.1241C57.5118 63.0043 60.578 66.0653 64.4587 66.4905H64.5063C64.7152 66.5143 64.9258 66.5265 65.1358 66.5265C65.2431 66.5265 65.3383 66.5381 65.445 66.5381C66.0687 66.4981 66.5502 65.9747 66.538 65.3499V0L15.4463 0ZM28.5163 4.75272H52.2799V7.12908H28.5163V4.75272ZM24.9517 11.8818V9.50544H55.8444V11.8818H24.9517ZM17.8226 34.4572H24.9517V36.8336H17.8226V34.4572ZM22.5754 41.5863H17.8226V39.2099H22.5754V41.5863ZM61.7853 47.5272C61.7853 48.1834 61.2533 48.7154 60.5971 48.7154H24.9517C24.4708 48.7171 24.0374 48.4253 23.8587 47.9786C23.6725 47.5365 23.7711 47.0254 24.1082 46.6836L59.7536 11.0382C60.0953 10.7012 60.6064 10.6025 61.0485 10.7888C61.4952 10.9675 61.7871 11.4008 61.7853 11.8818V47.5272Z" fill="#ffffff"/>
<path
        d="M30.8929 43.9629H33.2693V46.3392H35.6456V43.9629H38.022V46.3392H40.3984V43.9629H42.7747V46.3392H45.1511V43.9629H47.5275V46.3392H49.9038V43.9629H52.2802V46.3392H54.6566V43.9629H57.0329V41.5865H59.4093V39.2101H57.0329V36.8338H59.4093V34.4574H57.0329V32.081H59.4093V29.7047H57.0329V27.3283H59.4093V24.9519H57.0329V22.5756H59.4093V20.1992H57.0329V17.8228H59.4093V14.7502L27.8203 46.3392H30.8929V43.9629ZM41.3226 39.5582L52.6283 28.2531C52.9683 27.9131 53.4794 27.8116 53.9232 27.9955C54.3671 28.1794 54.6566 28.6122 54.6566 29.0926V40.3983C54.6566 41.0545 54.1246 41.5865 53.4684 41.5865H42.1626C41.6823 41.5865 41.2495 41.297 41.0655 40.8532C40.8816 40.4093 40.9832 39.8982 41.3226 39.5582Z" fill="#fffffff"/>
<path d="M52.2804 31.9609L45.0312 39.2101H52.2804V31.9609Z" fill="#ffffff"/>
<path d="M57.0332 43.9626H59.4096V46.339H57.0332V43.9626Z" fill="#ffffff"/>
<path d="M36.5269 21.573L35.6816 24.9519L36.5269 28.3314L39.9058 24.9519L36.5269 21.573Z" fill="#ffffff"/>
<path d="M3.56455 28.5163H4.75274V21.3872H3.56455C1.59604 21.3872 0 22.9832 0 24.9518C0 26.9203 1.59604 28.5163 3.56455 28.5163Z" fill="#ffffff"/>
<path
        d="M13.0702 66.5384H58.626C58.3522 66.315 58.087 66.0777 57.83 65.8254C57.5353 65.5318 57.258 65.2208 56.9986 64.8954L56.9603 64.8443C56.737 64.5618 56.5281 64.2682 56.3343 63.9648C56.3106 63.9282 56.2891 63.8888 56.2653 63.8458C56.0872 63.561 55.9236 63.268 55.7745 62.9681C55.7461 62.9112 55.7199 62.8491 55.6915 62.7957C55.5569 62.512 55.4345 62.2243 55.3266 61.9296C55.297 61.8501 55.2686 61.7718 55.2413 61.6917C55.1462 61.4138 55.0638 61.1324 54.9918 60.8458C54.9669 60.7472 54.939 60.6497 54.9182 60.5511C54.8549 60.2697 54.8073 59.9831 54.7685 59.6959C54.754 59.5938 54.7337 59.494 54.7232 59.3902C54.6803 59.002 54.6577 58.6116 54.6565 58.2211V57.033H4.75293V58.2211C4.75815 62.8126 8.47876 66.5332 13.0702 66.5384Z" fill="#ffffff"/>
<path d="M33.5306 23.7636L34.1247 21.3872H7.12891V28.5163H34.1247L33.5306 26.1399H9.50527V23.7636H33.5306Z" fill="#ffffff"/>
</svg>
