<svg width="18" height="18" viewBox="0 0 18 18" fill="none" xmlns="http://www.w3.org/2000/svg">
<path fill-rule="evenodd" clip-rule="evenodd" d="M1.70338 7.72418C1.70493 4.32003 4.47318 1.55024 7.87578 1.54946C11.2784 1.54946 14.0474 4.31848 14.049 7.72263C14.049 11.1252 11.2792 13.8935 7.87423 13.8935C4.4724 13.8935 1.70493 11.1252 1.70338 7.72418ZM0.154297 7.72383C0.155846 11.9792 3.61964 15.4422 7.87425 15.4422C9.64881 15.4422 11.2856 14.8409 12.5914 13.8313L16.5284 17.7683C16.6794 17.9193 16.8777 17.9952 17.076 17.9952C17.2743 17.9952 17.4725 17.9193 17.6236 17.7683C17.9264 17.4654 17.9264 16.9751 17.6236 16.673L13.7168 12.7662C14.8884 11.4122 15.5981 9.64824 15.5981 7.7215C15.5965 3.46379 12.132 0 7.8758 0C3.61964 0.000774551 0.155846 3.46534 0.154297 7.72383Z" fill="white"/>
</svg>
