<svg width="75" height="76" viewBox="0 0 75 76" fill="#ffffff" xmlns="http://www.w3.org/2000/svg">
<path d="M60.388 38.3175C59.9603 37.7522 59.1513 37.6377 58.5809 38.0616C58.3069 38.2654 58.1257 38.5686 58.0775 38.9048L57.3611 43.8816C57.3438 43.9456 57.3212 44.008 57.2939 44.0684C58.6104 42.3358 59.6729 40.4271 60.45 38.3994L60.388 38.3175Z" fill="#ffffff"/>
<path d="M56.0812 44.9795C56.0203 44.9795 55.9595 44.9756 55.8992 44.9679L48.2317 43.8817C47.5259 43.7815 47.0359 43.1333 47.1371 42.4338C47.1371 42.4336 47.1371 42.4336 47.1371 42.4334L47.8535 37.4566C47.9533 36.7569 47.4622 36.1095 46.7563 36.0105C46.4185 35.9632 46.0755 36.0502 45.8023 36.2527L41.744 39.2682C41.1736 39.6922 40.3646 39.5777 39.9368 39.0123L35.2899 32.8712C34.8621 32.3059 34.9777 31.504 35.5481 31.0801L39.6051 28.0645C40.1755 27.6406 40.291 26.8387 39.8633 26.2734C39.6577 26.0018 39.3518 25.8222 39.0126 25.7744L33.9913 25.063C33.2856 24.9636 32.7947 24.3157 32.8953 23.6162C32.8953 23.6157 32.8954 23.6152 32.8954 23.6148L33.9913 16.0164C34.0917 15.3169 34.7453 14.8304 35.4511 14.93C35.4516 14.93 35.452 14.9302 35.4525 14.9302L40.4738 15.6416C40.9903 15.7158 41.5007 15.4724 41.7647 15.0262C42.0388 14.5827 42.008 14.0175 41.6872 13.606L38.6473 9.58616C38.2196 9.02082 38.3351 8.21896 38.9055 7.795L39.6374 7.25126C38.4518 7.19448 37.2634 7.22599 36.0825 7.34593C23.333 8.78877 14.1779 20.2025 15.6336 32.8391C16.4266 39.723 20.3046 45.8872 26.1922 49.6224C28.3417 50.9434 29.6619 53.2607 29.6929 55.7673V60.9374C29.6929 63.0572 31.4266 64.7756 33.5654 64.7756H43.8919C46.0307 64.7756 47.7644 63.0572 47.7644 60.9374V55.8735C47.7971 53.308 49.1444 50.9354 51.34 49.5763C53.3749 48.2678 55.1923 46.6535 56.7266 44.7914C56.532 44.9096 56.3093 44.9745 56.0812 44.9795ZM40.0195 60.9374H37.4378V57.0992H40.0195V60.9374ZM37.4378 54.5404C37.437 51.1577 35.3325 48.1255 32.1454 46.9152C22.8501 43.3127 18.2612 32.9238 21.8958 23.7107C23.3032 20.1433 25.8274 17.117 29.0978 15.0761L30.4674 17.2408C23.2267 21.7566 21.0505 31.235 25.6066 38.4117C27.3718 41.1921 29.9904 43.3381 33.0774 44.5342C37.261 46.1202 40.0227 50.1009 40.0195 54.5404H37.4378Z" fill="#ffffff"/>
<path d="M33.5654 71.1724V72.4518C33.5654 73.865 34.7212 75.0106 36.1471 75.0106H41.3104C42.7362 75.0106 43.892 73.865 43.892 72.4518V71.1724H33.5654Z" fill="#ffffff"/>
<path d="M25.4954 50.7022C24.7306 50.2107 23.994 49.6772 23.2894 49.1042C21.3407 52.8641 16.686 54.3462 12.8926 52.415C10.3107 51.1004 8.69068 48.4616 8.69923 45.5846C8.7052 41.7165 11.6116 38.4559 15.4838 37.9735C15.0101 36.5613 14.6678 35.109 14.4615 33.635L14.2356 34.6995C13.9422 36.0823 12.5731 36.9677 11.1779 36.6769C10.8438 36.6074 10.5269 36.4727 10.2456 36.2808L7.56072 34.4538L5.20884 36.7798L7.0573 39.4435C7.86632 40.6071 7.5704 42.2006 6.3964 43.0025C6.11484 43.1947 5.79762 43.3297 5.46314 43.3994L2.24512 44.0711V47.1109L5.46314 47.7826C6.85835 48.0738 7.75128 49.431 7.45746 50.8138C7.38695 51.1458 7.25044 51.4606 7.05601 51.7398L5.20884 54.3894L7.56072 56.7154L10.2431 54.8833C11.4171 54.0814 13.0248 54.3747 13.8338 55.5383C14.0277 55.8174 14.1639 56.1318 14.2343 56.4633L14.9107 59.658H17.9789L18.6553 56.4684C18.949 55.0856 20.3181 54.2004 21.7133 54.4915C22.0478 54.5612 22.365 54.6962 22.6466 54.8884L25.3276 56.7154L28.0964 53.9711C27.6322 52.6187 26.7141 51.4649 25.4954 50.7022Z" fill="#ffffff"/>
<path d="M43.892 66.0549H33.5654V68.6137H43.892V66.0549Z" fill="#ffffff"/>
<path d="M70.9594 22.5439C68.8423 22.2438 67.3714 20.2993 67.6741 18.2009C67.8194 17.1933 68.3627 16.2841 69.1845 15.6735L72.2089 13.4243L69.1109 9.33023L66.0865 11.5781C64.3758 12.8505 61.9485 12.5073 60.6649 10.8119C60.0493 9.99887 59.7842 8.97679 59.928 7.97023L60.4624 4.25997L55.352 3.53711L54.8176 7.24737C54.5148 9.34574 52.5531 10.8036 50.4359 10.5036C49.4193 10.3595 48.502 9.82104 47.8859 9.00654L45.6167 6.00379L41.486 9.07435L43.754 12.072C45.0374 13.7677 44.691 16.1734 42.9802 17.4456C42.1581 18.0569 41.1248 18.3191 40.1074 18.1747L36.364 17.645L35.6309 22.7115L39.3742 23.2411C41.4914 23.5413 42.9622 25.4857 42.6595 27.5841C42.5142 28.5917 41.9709 29.5009 41.1491 30.1115L38.126 32.3607L41.224 36.4548L44.2484 34.2069C45.9592 32.9348 48.3864 33.2782 49.67 34.9739C50.2867 35.7887 50.5513 36.813 50.4056 37.8212L49.8712 41.5314L54.9932 42.2581L55.5276 38.5479C55.8304 36.4495 57.7922 34.9916 59.9093 35.2916C60.926 35.4357 61.8433 35.9742 62.4593 36.7887L64.7286 39.785L68.8592 36.7145L66.5835 33.7117C65.3006 32.0157 65.6476 29.61 67.3588 28.3384C68.1791 27.7288 69.2098 27.4665 70.2249 27.609L73.9683 28.1387L74.6976 23.0735L70.9594 22.5439ZM55.1687 30.5695C50.8913 30.5695 47.4238 27.1327 47.4238 22.8931C47.4238 18.6535 50.8913 15.2167 55.1687 15.2167C59.4462 15.2167 62.9137 18.6535 62.9137 22.8931C62.9087 27.1307 59.4441 30.5646 55.1687 30.5695Z" fill="#ffffff"/>
<path d="M72.2897 48.1433H63.2539V50.7021H72.2897V48.1433Z" fill="#ffffff"/>
<path d="M62.7902 54.8358L61.1377 56.8018L68.8832 63.1977L70.5357 61.2318L62.7902 54.8358Z" fill="#ffffff"/>
<path d="M58.0914 58.3784H55.5098V67.3342H58.0914V58.3784Z" fill="#ffffff"/>
<path d="M11.3073 20.0342L0.981445 22.5925L1.60718 25.0736L11.933 22.5152L11.3073 20.0342Z" fill="#ffffff"/>
<path d="M4.62568 7.44263L3.12598 9.52368L12.161 15.92L13.6607 13.8389L4.62568 7.44263Z" fill="#ffffff"/>
<path d="M16.6866 0.487031L14.1855 1.12085L16.8256 11.3553L19.3267 10.7214L16.6866 0.487031Z" fill="#ffffff"/>
</svg>
